<?xml version="1.0" encoding="utf-8"?>
<!-- Generator: Adobe Illustrator 18.1.1, SVG Export Plug-In . SVG Version: 6.00 Build 0)  -->
<svg version="1.1" id="Layer_1" xmlns="http://www.w3.org/2000/svg" xmlns:xlink="http://www.w3.org/1999/xlink" x="0px" y="0px"
	 viewBox="-1026.7 691.9 327.3 386.2" enable-background="new -1026.7 691.9 327.3 386.2" xml:space="preserve">
<path id="server-4-icon" fill="#C3C3C3" d="M-699.4,789h-327.3v82h327.3V789L-699.4,789z M-1004.8,848.1l14.3-36h17.3l-14.3,36
	H-1004.8z M-976.7,848.1l14.3-36h17.3l-14.3,36H-976.7z M-948.5,848.1l14.3-36h17.3l-14.4,36H-948.5z M-920.4,848.1l14.3-36h17.3
	l-14.3,36H-920.4z M-874.8,848.1h-17.3l14.3-36h17.3L-874.8,848.1z M-738.2,842.1c-6.7,0-12-5.3-12-12c0-6.7,5.3-12,12-12
	c6.7,0,12,5.3,12,12C-726.2,836.7-731.6,842.1-738.2,842.1z M-717.4,767.4h-290.4l57.3-75.6h175.2L-717.4,767.4z M-699.4,892.6
	h-327.3v82h327.3V892.6L-699.4,892.6z M-1004.8,951.7l14.3-36h17.3l-14.3,36H-1004.8z M-976.7,951.7l14.3-36h17.3l-14.3,36H-976.7z
	 M-948.5,951.7l14.3-36h17.3l-14.4,36H-948.5z M-920.4,951.7l14.3-36h17.3l-14.3,36H-920.4z M-874.8,951.7h-17.3l14.3-36h17.3
	L-874.8,951.7z M-738.2,945.7c-6.7,0-12-5.3-12-12c0-6.7,5.3-12,12-12c6.7,0,12,5.3,12,12C-726.2,940.3-731.6,945.7-738.2,945.7z
	 M-699.4,996.1h-327.3v82h327.3V996.1L-699.4,996.1z M-1004.8,1055.1l14.3-36h17.3l-14.3,36H-1004.8z M-976.7,1055.1l14.3-36h17.3
	l-14.3,36H-976.7z M-948.5,1055.1l14.3-36h17.3l-14.4,36H-948.5z M-920.4,1055.1l14.3-36h17.3l-14.3,36H-920.4z M-874.8,1055.1
	h-17.3l14.3-36h17.3L-874.8,1055.1z M-738.2,1049.2c-6.7,0-12-5.3-12-12c0-6.7,5.3-12,12-12c6.7,0,12,5.3,12,12
	C-726.2,1043.7-731.6,1049.2-738.2,1049.2z"/>
</svg>
