<?xml version="1.0" encoding="utf-8"?>
<!-- Generator: Adobe Illustrator 18.1.1, SVG Export Plug-In . SVG Version: 6.00 Build 0)  -->
<svg version="1.1" id="Layer_1" xmlns="http://www.w3.org/2000/svg" xmlns:xlink="http://www.w3.org/1999/xlink" x="0px" y="0px"
	 viewBox="-926.2 831.2 107.6 107.6" enable-background="new -926.2 831.2 107.6 107.6" xml:space="preserve">
<path id="link-3-icon" fill="#C3C3C3" d="M-842.6,848.1l-12.6,12.6c-7.9-4.7-18.2-3.7-24.9,3.1l-13.7,13.7
	c-6.8,6.8-7.8,17.1-3.1,24.9l-12.6,12.6c-2,2-2,5.2,0,7c2,2,5.2,2,7,0l12.6-12.6c7.9,4.7,18.2,3.7,24.9-3.1l13.7-13.7
	c6.8-6.8,7.8-17.1,3.1-24.9l12.6-12.6c2-2,2-5.2,0-7C-837.4,846.1-840.6,846.1-842.6,848.1z M-858.1,885.7l-13.7,13.7
	c-2.9,2.9-6.9,3.8-10.6,2.6l5.2-5.2c2-2,2-5.2,0-7c-2-2-5.2-2-7,0l-5.2,5.2c-1.1-3.7-0.2-7.8,2.6-10.6l13.7-13.7
	c2.9-2.9,6.9-3.8,10.6-2.6l-5.2,5.2c-2,2-2,5.2,0,7c2,2,5.2,2,7,0l5.2-5.2C-854.4,878.7-855.2,882.8-858.1,885.7z"/>
<circle fill="#C3C3C3" stroke="#C3C3C3" stroke-width="11" stroke-miterlimit="10" cx="-910.9" cy="923.4" r="9.8"/>
<circle fill="#C3C3C3" stroke="#C3C3C3" stroke-width="11" stroke-miterlimit="10" cx="-834" cy="846.6" r="9.8"/>
</svg>
