<?xml version="1.0" encoding="utf-8"?>
<!-- Generator: Adobe Illustrator 18.1.1, SVG Export Plug-In . SVG Version: 6.00 Build 0)  -->
<svg version="1.1" xmlns="http://www.w3.org/2000/svg" xmlns:xlink="http://www.w3.org/1999/xlink" x="0px" y="0px"
	 viewBox="152.4 0.1 686.1 559.8" enable-background="new 152.4 0.1 686.1 559.8" xml:space="preserve">
<g id="Layer_2">
	<rect x="152.4" y="0.1" fill="none" width="686.1" height="559.8"/>
</g>
<g id="Layer_1">
	<path id="server-icon" fill="#333333" d="M533.2,420.3h-75.3v73h-56.5v0.9v65.7h188.3v-65.7v-0.9h-56.5V420.3L533.2,420.3z
		 M759.9,493.3H627.3v66.6h132.5V493.3z M363.7,493.3H231.1v66.6h132.5V493.3z M838.6,203.7H152.4v172h686.1L838.6,203.7
		L838.6,203.7z M198.1,327.3l30.2-75.5h36.4l-30.2,75.5H198.1z M257.1,327.3l30.2-75.5h36.4l-30.2,75.5H257.1z M316.1,327.3
		l30.2-75.5h36.4l-30.2,75.5H316.1z M375.2,327.3l30.2-75.5h36.4l-30.2,75.5H375.2z M470.8,327.3h-36.4l30.2-75.5H501L470.8,327.3z
		 M757.2,314.9c-14,0-25.2-11.4-25.2-25.2s11.4-25.2,25.2-25.2c14,0,25.2,11.4,25.2,25.2S771.1,314.9,757.2,314.9z M800.7,158.6
		h-609L311.8,0.1h367.4L800.7,158.6z"/>
</g>
</svg>
