<?xml version="1.0" encoding="utf-8"?>
<!-- Generator: Adobe Illustrator 18.1.1, SVG Export Plug-In . SVG Version: 6.00 Build 0)  -->
<svg version="1.1" id="Layer_1" xmlns="http://www.w3.org/2000/svg" xmlns:xlink="http://www.w3.org/1999/xlink" x="0px" y="0px"
	 viewBox="-1055.7 758 385.1 254.2" enable-background="new -1055.7 758 385.1 254.2" xml:space="preserve">
<path id="cloud-3-icon" fill="#C3C3C3" d="M-719.3,847.8c-9.8-51.6-55-89.8-108.6-89.8c-32.9,0-63.4,14.3-84.3,39
	c-34.8-9.3-71.3,11.1-81.5,45.7c-36.2,10.6-62.1,44.2-62.1,83c0,47.7,38.8,86.4,87.4,86.4H-757c47.7,0,86.4-38.8,86.4-86.4
	C-670.4,891.9-689.7,862-719.3,847.8z M-756.9,974.5h-211.3c-27.9,0-49.9-21.9-49.9-48.9c0-32,26-56.3,58.3-50.4
	c-10.8-37.1,41.3-58,60.6-30.3c4.9-13.7,24.2-49.4,71.3-49.4c35.6,0,72.6,24.5,73.8,79.7c23.8,0.1,46.1,17.2,46.1,50.4
	C-707.9,952.6-729.9,974.5-756.9,974.5z"/>
</svg>
