<?xml version="1.0" encoding="utf-8"?>
<!-- Generator: Adobe Illustrator 18.1.1, SVG Export Plug-In . SVG Version: 6.00 Build 0)  -->
<svg version="1.1" id="Layer_1" xmlns="http://www.w3.org/2000/svg" xmlns:xlink="http://www.w3.org/1999/xlink" x="0px" y="0px"
	 viewBox="-1056.1 766.8 386.2 236.4" enable-background="new -1056.1 766.8 386.2 236.4" xml:space="preserve">
<path id="server-6-icon" fill="#C3C3C3" d="M-669.9,931.5H-956v71.7h286.1V931.5z M-937,983.2l12.6-31.5h15.2l-12.6,31.5H-937z
	 M-912.3,983.2l12.6-31.5h15.2l-12.6,31.5H-912.3z M-887.8,983.2l12.6-31.5h15.2l-12.6,31.5H-887.8z M-863.1,983.2l12.6-31.5h15.2
	l-12.6,31.5H-863.1z M-823.2,983.2h-15.2l12.6-31.5h15.2L-823.2,983.2z M-703.8,977.9c-5.8,0-10.5-4.7-10.5-10.5s4.7-10.5,10.5-10.5
	s10.5,4.7,10.5,10.5S-698,977.9-703.8,977.9z M-984.2,981.9c-40.2-1.1-71.9-33.5-71.9-73.2c0-32.9,21.8-61.2,52.5-70.2
	c8.6-29.3,39.6-46.6,69-38.7c17.6-20.9,43.5-33,71.3-33c45.4,0,83.7,32.4,92,76c23.5,11.3,39.3,34.2,41.2,60.6h-31.8
	c-2.3-24.6-20-37.3-38.8-37.3c-1-46.8-32.2-67.5-62.4-67.5c-39.9,0-56.3,30.3-60.5,41.8c-16.3-23.5-60.5-5.7-51.4,25.7
	c-27.5-5-49.4,15.7-49.4,42.8c0,22.2,17.5,40.3,40.1,41.4L-984.2,981.9L-984.2,981.9z"/>
</svg>
